<?xml version="1.0" encoding="UTF-8"?>
<!DOCTYPE svg PUBLIC "-//W3C//DTD SVG 1.1//EN" "http://www.w3.org/Graphics/SVG/1.1/DTD/svg11.dtd">
<svg xmlns="http://www.w3.org/2000/svg" version="1.1" width="512px" height="512px" style="shape-rendering:geometricPrecision; text-rendering:geometricPrecision; image-rendering:optimizeQuality; fill-rule:evenodd; clip-rule:evenodd" xmlns:xlink="http://www.w3.org/1999/xlink">
<g><path style="opacity:1" fill="#ff8b32" d="M 238.5,26.5 C 238.389,27.1174 238.056,27.6174 237.5,28C 229.353,29.3763 221.353,29.543 213.5,28.5C 221.599,26.7686 229.932,26.1019 238.5,26.5 Z"/></g>
<g><path style="opacity:0.999" fill="#ff7201" d="M 238.5,26.5 C 254.167,26.5 269.833,26.5 285.5,26.5C 286.134,27.9468 287.301,28.6134 289,28.5C 290.07,28.472 290.903,28.1386 291.5,27.5C 297.536,28.0058 303.536,28.8391 309.5,30C 310.333,30.8333 311.167,31.6667 312,32.5C 312.5,70.8319 312.667,109.165 312.5,147.5C 312.513,150.695 314.18,152.362 317.5,152.5C 323.8,151.022 329.133,148.022 333.5,143.5C 339.885,138.451 346.552,133.785 353.5,129.5C 366.338,120.173 378.171,109.506 389,97.5C 390.421,95.5952 391.588,93.5952 392.5,91.5C 394.167,89.5 395.833,87.5 397.5,85.5C 401.5,83.5 404.5,80.5 406.5,76.5C 407.5,75.1667 408.5,73.8333 409.5,72.5C 411.833,70.8333 413.833,68.8333 415.5,66.5C 418.167,66.5 420.833,66.5 423.5,66.5C 428.502,70.0031 433.835,73.0031 439.5,75.5C 442.99,78.4113 446.656,81.078 450.5,83.5C 452.243,86.5577 454.91,88.5577 458.5,89.5C 459.833,90.1667 461.167,90.8333 462.5,91.5C 465.287,94.0237 468.287,96.3571 471.5,98.5C 477.604,104.391 483.937,110.058 490.5,115.5C 490.5,116.167 490.833,116.5 491.5,116.5C 493.094,119.764 495.427,122.431 498.5,124.5C 501.167,126.833 503.833,129.167 506.5,131.5C 507.473,134.135 509.14,136.135 511.5,137.5C 511.5,140.5 511.5,143.5 511.5,146.5C 504.277,151.938 497.277,157.604 490.5,163.5C 486.975,164.759 483.975,166.759 481.5,169.5C 478.194,171.489 474.861,173.489 471.5,175.5C 471.44,174.957 471.107,174.624 470.5,174.5C 468.787,174.879 467.787,175.879 467.5,177.5C 462.479,180.864 457.479,184.197 452.5,187.5C 451.5,187.5 450.5,187.5 449.5,187.5C 445.608,188.446 441.941,189.946 438.5,192C 436.907,192.949 435.574,194.115 434.5,195.5C 430.386,195.386 427.386,197.052 425.5,200.5C 424.5,200.5 423.5,200.5 422.5,200.5C 421.127,200.343 419.793,200.51 418.5,201C 415.907,201.886 413.907,203.386 412.5,205.5C 407.747,208.264 402.747,210.264 397.5,211.5C 396.508,211.328 395.842,211.662 395.5,212.5C 390.58,214.127 385.58,215.46 380.5,216.5C 377.264,216.518 374.597,217.518 372.5,219.5C 371.036,220.405 369.702,220.405 368.5,219.5C 365.478,219.804 362.478,220.304 359.5,221C 357.881,221.236 356.881,222.069 356.5,223.5C 349.748,225.174 343.082,226.841 336.5,228.5C 333.518,228.963 330.518,229.296 327.5,229.5C 326.726,228.853 325.726,228.52 324.5,228.5C 318.429,229.254 312.762,230.587 307.5,232.5C 273.167,236.5 238.833,236.5 204.5,232.5C 203.051,230.836 201.051,230.002 198.5,230C 194.661,229.541 190.828,229.041 187,228.5C 185.615,228.514 184.449,228.848 183.5,229.5C 180.833,229.167 178.167,228.833 175.5,228.5C 174.432,227.566 173.099,227.232 171.5,227.5C 160.742,225.479 150.076,222.812 139.5,219.5C 139.119,218.069 138.119,217.236 136.5,217C 133.243,215.957 129.91,215.457 126.5,215.5C 122.976,214.035 119.309,213.035 115.5,212.5C 115.389,211.883 115.056,211.383 114.5,211C 108.62,209.721 102.953,207.888 97.5,205.5C 95.5739,203.707 93.2406,202.707 90.5,202.5C 89.5,201.833 88.5,201.167 87.5,200.5C 85.8593,198.742 83.8593,197.242 81.5,196C 76.8987,193.858 72.232,192.025 67.5,190.5C 60.1667,186.833 52.8333,183.167 45.5,179.5C 45.1667,178.5 44.5,177.833 43.5,177.5C 43.0629,175.926 42.0629,174.759 40.5,174C 37.9406,172.223 35.2739,170.723 32.5,169.5C 28.38,168.274 24.7133,166.274 21.5,163.5C 13.8857,157.89 6.55241,151.89 -0.5,145.5C -0.5,143.167 -0.5,140.833 -0.5,138.5C 3.47183,134.193 7.47183,129.859 11.5,125.5C 17.1667,121.833 21.8333,117.167 25.5,111.5C 30.1927,107.139 34.8594,102.805 39.5,98.5C 43.0515,96.8892 46.0515,94.5558 48.5,91.5C 50.1667,90.8333 51.8333,90.1667 53.5,89.5C 58.441,87.211 62.7743,84.211 66.5,80.5C 75.1967,76.8256 83.1967,72.1589 90.5,66.5C 92.1667,66.5 93.8333,66.5 95.5,66.5C 98.8062,70.4729 102.473,74.1396 106.5,77.5C 110.019,83.6955 114.686,89.0288 120.5,93.5C 127.24,101.745 134.573,109.578 142.5,117C 143.094,117.464 143.761,117.631 144.5,117.5C 147.319,120.075 150.319,122.408 153.5,124.5C 153.5,125.167 153.833,125.5 154.5,125.5C 154.525,128.179 155.858,129.512 158.5,129.5C 159.5,130.167 160.5,130.833 161.5,131.5C 164.642,133.58 167.642,135.914 170.5,138.5C 172.818,141.518 175.818,143.851 179.5,145.5C 180.107,145.376 180.44,145.043 180.5,144.5C 181.167,144.833 181.833,145.167 182.5,145.5C 182.414,146.496 182.748,147.329 183.5,148C 187.467,150.768 191.8,152.102 196.5,152C 197.756,151.583 198.423,150.75 198.5,149.5C 198.5,149.167 198.5,148.833 198.5,148.5C 199.178,109.961 199.845,71.2941 200.5,32.5C 200.577,31.2502 201.244,30.4169 202.5,30C 206.145,29.2811 209.812,28.7811 213.5,28.5C 221.353,29.543 229.353,29.3763 237.5,28C 238.056,27.6174 238.389,27.1174 238.5,26.5 Z"/></g>
<g><path style="opacity:0.541" fill="#ffa85b" d="M 285.5,26.5 C 287.735,26.2053 289.735,26.5386 291.5,27.5C 290.903,28.1386 290.07,28.472 289,28.5C 287.301,28.6134 286.134,27.9468 285.5,26.5 Z"/></g>
<g><path style="opacity:0.694" fill="#ffa560" d="M 200.5,32.5 C 199.845,71.2941 199.178,109.961 198.5,148.5C 198.333,110.165 198.5,71.8319 199,33.5C 199.383,32.944 199.883,32.6107 200.5,32.5 Z"/></g>
<g><path style="opacity:0.004" fill="#fe8b2d" d="M 95.5,65.5 C 96.8333,66.1667 96.8333,66.1667 95.5,65.5 Z"/></g>
<g><path style="opacity:0.004" fill="#feb06d" d="M 415.5,66.5 C 414.833,65.1667 414.833,65.1667 415.5,66.5 Z"/></g>
<g><path style="opacity:0.004" fill="#fe9d4b" d="M 423.5,65.5 C 424.833,66.1667 424.833,66.1667 423.5,65.5 Z"/></g>
<g><path style="opacity:0.004" fill="#fe9035" d="M 409.5,72.5 C 408.833,71.1667 408.833,71.1667 409.5,72.5 Z"/></g>
<g><path style="opacity:0.004" fill="#feae6c" d="M 439.5,74.5 C 440.833,75.1667 440.833,75.1667 439.5,74.5 Z"/></g>
<g><path style="opacity:0.929" fill="#ff923f" d="M 90.5,66.5 C 83.1967,72.1589 75.1967,76.8256 66.5,80.5C 73.8356,74.8274 81.8356,70.1607 90.5,66.5 Z"/></g>
<g><path style="opacity:0.651" fill="#ff9c4c" d="M 406.5,76.5 C 404.5,80.5 401.5,83.5 397.5,85.5C 400.167,82.1667 403.167,79.1667 406.5,76.5 Z"/></g>
<g><path style="opacity:0.004" fill="#fe963f" d="M 61.5,82.5 C 60.8333,81.1667 60.8333,81.1667 61.5,82.5 Z"/></g>
<g><path style="opacity:0.004" fill="#fe841f" d="M 111.5,81.5 C 112.833,82.1667 112.833,82.1667 111.5,81.5 Z"/></g>
<g><path style="opacity:0.592" fill="#ff9440" d="M 66.5,80.5 C 62.7743,84.211 58.441,87.211 53.5,89.5C 55.7198,86.713 58.3864,84.3797 61.5,82.5C 63.0495,81.5592 64.7162,80.8925 66.5,80.5 Z"/></g>
<g><path style="opacity:0.086" fill="#ff9744" d="M 106.5,77.5 C 107.939,79.3603 109.605,81.027 111.5,82.5C 114.167,85.8333 117.167,88.8333 120.5,91.5C 120.5,92.1667 120.5,92.8333 120.5,93.5C 114.686,89.0288 110.019,83.6955 106.5,77.5 Z"/></g>
<g><path style="opacity:0.631" fill="#ffa153" d="M 450.5,83.5 C 453.921,84.5389 456.588,86.5389 458.5,89.5C 454.91,88.5577 452.243,86.5577 450.5,83.5 Z"/></g>
<g><path style="opacity:0.004" fill="#feac67" d="M 48.5,91.5 C 47.8333,90.1667 47.8333,90.1667 48.5,91.5 Z"/></g>
<g><path style="opacity:0.004" fill="#feb170" d="M 120.5,90.5 C 121.833,91.1667 121.833,91.1667 120.5,90.5 Z"/></g>
<g><path style="opacity:0.004" fill="#fe8928" d="M 462.5,90.5 C 463.833,91.1667 463.833,91.1667 462.5,90.5 Z"/></g>
<g><path style="opacity:0.004" fill="#feab65" d="M 39.5,98.5 C 38.8333,97.1667 38.8333,97.1667 39.5,98.5 Z"/></g>
<g><path style="opacity:0.004" fill="#fe9239" d="M 126.5,97.5 C 127.833,98.1667 127.833,98.1667 126.5,97.5 Z"/></g>
<g><path style="opacity:0.004" fill="#fe8622" d="M 471.5,97.5 C 472.833,98.1667 472.833,98.1667 471.5,97.5 Z"/></g>
<g><path style="opacity:0.953" fill="#ff8930" d="M 392.5,91.5 C 391.588,93.5952 390.421,95.5952 389,97.5C 378.171,109.506 366.338,120.173 353.5,129.5C 354.861,127.473 356.527,125.806 358.5,124.5C 370.495,114.172 381.828,103.172 392.5,91.5 Z"/></g>
<g><path style="opacity:0.867" fill="#ff994b" d="M 120.5,93.5 C 122.5,95.1667 124.5,96.8333 126.5,98.5C 129.5,102.167 132.833,105.5 136.5,108.5C 139.167,111.5 141.833,114.5 144.5,117.5C 143.761,117.631 143.094,117.464 142.5,117C 134.573,109.578 127.24,101.745 120.5,93.5 Z"/></g>
<g><path style="opacity:0.004" fill="#fea862" d="M 136.5,107.5 C 137.833,108.167 137.833,108.167 136.5,107.5 Z"/></g>
<g><path style="opacity:0.004" fill="#fe7c11" d="M 490.5,114.5 C 491.833,115.167 491.833,115.167 490.5,114.5 Z"/></g>
<g><path style="opacity:0.078" fill="#ffaf6a" d="M 491.5,116.5 C 494.573,118.569 496.906,121.236 498.5,124.5C 495.427,122.431 493.094,119.764 491.5,116.5 Z"/></g>
<g><path style="opacity:0.82" fill="#ff984a" d="M 25.5,111.5 C 21.8333,117.167 17.1667,121.833 11.5,125.5C 15.8333,120.5 20.5,115.833 25.5,111.5 Z"/></g>
<g><path style="opacity:0.004" fill="#fe9034" d="M 153.5,123.5 C 154.833,124.167 154.833,124.167 153.5,123.5 Z"/></g>
<g><path style="opacity:0.004" fill="#fe8826" d="M 358.5,124.5 C 357.833,123.167 357.833,123.167 358.5,124.5 Z"/></g>
<g><path style="opacity:1" fill="#ffa957" d="M 154.5,125.5 C 156.167,126.5 157.5,127.833 158.5,129.5C 155.858,129.512 154.525,128.179 154.5,125.5 Z"/></g>
<g><path style="opacity:0.004" fill="#fe5a00" d="M 161.5,130.5 C 162.833,131.167 162.833,131.167 161.5,130.5 Z"/></g>
<g><path style="opacity:0.004" fill="#fea75e" d="M 506.5,130.5 C 507.833,131.167 507.833,131.167 506.5,130.5 Z"/></g>
<g><path style="opacity:0.227" fill="#ffa052" d="M 170.5,138.5 C 174.118,140.137 177.451,142.137 180.5,144.5C 180.44,145.043 180.107,145.376 179.5,145.5C 175.818,143.851 172.818,141.518 170.5,138.5 Z"/></g>
<g><path style="opacity:0.004" fill="#fea963" d="M 313.5,146.5 C 314.833,147.167 314.833,147.167 313.5,146.5 Z"/></g>
<g><path style="opacity:0.675" fill="#ff9b4e" d="M 182.5,145.5 C 187.207,149.517 192.541,150.85 198.5,149.5C 198.423,150.75 197.756,151.583 196.5,152C 191.8,152.102 187.467,150.768 183.5,148C 182.748,147.329 182.414,146.496 182.5,145.5 Z"/></g>
<g><path style="opacity:0.98" fill="#ff9543" d="M 333.5,143.5 C 329.133,148.022 323.8,151.022 317.5,152.5C 314.18,152.362 312.513,150.695 312.5,147.5C 312.833,147.5 313.167,147.5 313.5,147.5C 313.414,148.496 313.748,149.329 314.5,150C 316.5,150.667 318.5,150.667 320.5,150C 324.886,147.807 329.22,145.64 333.5,143.5 Z"/></g>
<g><path style="opacity:0.004" fill="#fe5000" d="M 21.5,163.5 C 20.8333,164.167 20.8333,164.167 21.5,163.5 Z"/></g>
<g><path style="opacity:0.004" fill="#fe9f50" d="M 490.5,163.5 C 491.833,164.167 491.833,164.167 490.5,163.5 Z"/></g>
<g><path style="opacity:0.004" fill="#feab66" d="M 481.5,169.5 C 482.833,170.167 482.833,170.167 481.5,169.5 Z"/></g>
<g><path style="opacity:0.651" fill="#ff9545" d="M 32.5,169.5 C 35.2739,170.723 37.9406,172.223 40.5,174C 42.0629,174.759 43.0629,175.926 43.5,177.5C 43.1667,177.5 42.8333,177.5 42.5,177.5C 38.7344,175.43 35.401,172.764 32.5,169.5 Z"/></g>
<g><path style="opacity:0.357" fill="#ffa559" d="M 471.5,175.5 C 470.486,176.674 469.153,177.34 467.5,177.5C 467.787,175.879 468.787,174.879 470.5,174.5C 471.107,174.624 471.44,174.957 471.5,175.5 Z"/></g>
<g><path style="opacity:0.004" fill="#fe9c4d" d="M 42.5,177.5 C 41.8333,178.167 41.8333,178.167 42.5,177.5 Z"/></g>
<g><path style="opacity:0.004" fill="#fea255" d="M 45.5,179.5 C 44.8333,180.167 44.8333,180.167 45.5,179.5 Z"/></g>
<g><path style="opacity:0.004" fill="#fea45e" d="M 452.5,187.5 C 453.833,188.167 453.833,188.167 452.5,187.5 Z"/></g>
<g><path style="opacity:0.004" fill="#fea358" d="M 448.5,189.5 C 449.833,190.167 449.833,190.167 448.5,189.5 Z"/></g>
<g><path style="opacity:0.973" fill="#ff8f3b" d="M 67.5,190.5 C 72.232,192.025 76.8987,193.858 81.5,196C 83.8593,197.242 85.8593,198.742 87.5,200.5C 80.2808,198.105 73.6141,194.771 67.5,190.5 Z"/></g>
<g><path style="opacity:0.02" fill="#ff953f" d="M 449.5,187.5 C 449.167,188.167 448.833,188.833 448.5,189.5C 444.182,190.992 440.182,192.992 436.5,195.5C 435.833,195.5 435.167,195.5 434.5,195.5C 435.574,194.115 436.907,192.949 438.5,192C 441.941,189.946 445.608,188.446 449.5,187.5 Z"/></g>
<g><path style="opacity:0.6" fill="#ffa455" d="M 434.5,195.5 C 431.696,197.405 428.696,199.071 425.5,200.5C 427.386,197.052 430.386,195.386 434.5,195.5 Z"/></g>
<g><path style="opacity:0.004" fill="#feaf6e" d="M 436.5,195.5 C 437.833,196.167 437.833,196.167 436.5,195.5 Z"/></g>
<g><path style="opacity:0.004" fill="#feb070" d="M 90.5,202.5 C 89.8333,203.167 89.8333,203.167 90.5,202.5 Z"/></g>
<g><path style="opacity:0.867" fill="#ff9747" d="M 422.5,200.5 C 421.833,201.167 421.167,201.833 420.5,202.5C 418.181,202.992 416.181,203.992 414.5,205.5C 413.833,205.5 413.167,205.5 412.5,205.5C 413.907,203.386 415.907,201.886 418.5,201C 419.793,200.51 421.127,200.343 422.5,200.5 Z"/></g>
<g><path style="opacity:0.004" fill="#fe943d" d="M 420.5,202.5 C 421.833,203.167 421.833,203.167 420.5,202.5 Z"/></g>
<g><path style="opacity:0.004" fill="#fe9741" d="M 97.5,205.5 C 96.8333,206.167 96.8333,206.167 97.5,205.5 Z"/></g>
<g><path style="opacity:0.004" fill="#fea153" d="M 414.5,205.5 C 415.833,206.167 415.833,206.167 414.5,205.5 Z"/></g>
<g><path style="opacity:0.004" fill="#fea051" d="M 397.5,211.5 C 398.833,212.167 398.833,212.167 397.5,211.5 Z"/></g>
<g><path style="opacity:0.004" fill="#feb170" d="M 115.5,212.5 C 114.833,213.167 114.833,213.167 115.5,212.5 Z"/></g>
<g><path style="opacity:0.004" fill="#fe9f4f" d="M 395.5,212.5 C 396.833,213.167 396.833,213.167 395.5,212.5 Z"/></g>
<g><path style="opacity:0.498" fill="#ff933f" d="M 126.5,215.5 C 129.91,215.457 133.243,215.957 136.5,217C 138.119,217.236 139.119,218.069 139.5,219.5C 134.95,218.537 130.617,217.203 126.5,215.5 Z"/></g>
<g><path style="opacity:0.008" fill="#ffa658" d="M 380.5,216.5 C 378.152,218.097 375.486,219.097 372.5,219.5C 374.597,217.518 377.264,216.518 380.5,216.5 Z"/></g>
<g><path style="opacity:0.369" fill="#ff9846" d="M 368.5,219.5 C 364.915,221.806 360.915,223.139 356.5,223.5C 356.881,222.069 357.881,221.236 359.5,221C 362.478,220.304 365.478,219.804 368.5,219.5 Z"/></g>
<g><path style="opacity:0.004" fill="#fea153" d="M 171.5,227.5 C 170.833,228.167 170.833,228.167 171.5,227.5 Z"/></g>
<g><path style="opacity:0.004" fill="#fe9f53" d="M 175.5,228.5 C 174.833,229.167 174.833,229.167 175.5,228.5 Z"/></g>
<g><path style="opacity:0.004" fill="#fea961" d="M 336.5,228.5 C 337.833,229.167 337.833,229.167 336.5,228.5 Z"/></g>
<g><path style="opacity:0.702" fill="#ff9340" d="M 183.5,229.5 C 184.449,228.848 185.615,228.514 187,228.5C 190.828,229.041 194.661,229.541 198.5,230C 201.051,230.002 203.051,230.836 204.5,232.5C 197.404,232.147 190.404,231.147 183.5,229.5 Z"/></g>
<g><path style="opacity:0.635" fill="#ff943f" d="M 327.5,229.5 C 320.944,231.148 314.277,232.148 307.5,232.5C 312.762,230.587 318.429,229.254 324.5,228.5C 325.726,228.52 326.726,228.853 327.5,229.5 Z"/></g>
<g><path style="opacity:0.999" fill="#ff7201" d="M 236.5,275.5 C 249.5,276.833 262.5,276.833 275.5,275.5C 286.236,275.237 296.903,275.903 307.5,277.5C 307.97,278.693 308.97,279.36 310.5,279.5C 314.364,280.028 318.197,280.695 322,281.5C 322.765,281.43 323.265,281.097 323.5,280.5C 327.869,280.467 332.202,280.8 336.5,281.5C 343.368,283.263 350.368,284.93 357.5,286.5C 357.577,287.75 358.244,288.583 359.5,289C 362.478,289.696 365.478,290.196 368.5,290.5C 369.702,289.595 371.036,289.595 372.5,290.5C 372.791,291.649 373.624,292.316 375,292.5C 377.137,293.077 379.304,293.41 381.5,293.5C 386.166,294.833 390.833,296.166 395.5,297.5C 395.842,298.338 396.508,298.672 397.5,298.5C 399.028,299.309 400.694,299.976 402.5,300.5C 404.578,303.051 407.244,304.884 410.5,306C 414.608,307.095 418.608,308.262 422.5,309.5C 423.5,309.5 424.5,309.5 425.5,309.5C 427.386,312.948 430.386,314.614 434.5,314.5C 434.833,314.5 435.167,314.5 435.5,314.5C 435.937,316.074 436.937,317.241 438.5,318C 441.941,320.054 445.608,321.554 449.5,322.5C 450.5,322.5 451.5,322.5 452.5,322.5C 453.167,323.5 453.833,324.5 454.5,325.5C 458.099,329.076 462.432,331.41 467.5,332.5C 472.424,334.767 477.091,337.433 481.5,340.5C 483.975,343.241 486.975,345.241 490.5,346.5C 495.794,350.823 501.127,355.156 506.5,359.5C 507.031,361.544 508.198,363.211 510,364.5C 510.843,368.103 510.343,371.436 508.5,374.5C 507.833,375.833 507.167,377.167 506.5,378.5C 505.833,378.5 505.5,378.833 505.5,379.5C 503.167,381.5 500.833,383.5 498.5,385.5C 495.427,387.569 493.094,390.236 491.5,393.5C 490.833,393.5 490.5,393.833 490.5,394.5C 489.833,394.5 489.5,394.833 489.5,395.5C 488.833,395.5 488.5,395.833 488.5,396.5C 486.098,398.909 483.431,400.909 480.5,402.5C 476.158,405.516 472.158,408.849 468.5,412.5C 466.995,415.05 464.995,417.05 462.5,418.5C 461.167,419.167 459.833,419.833 458.5,420.5C 455.796,420.67 454.129,422.003 453.5,424.5C 452.486,425.674 451.153,426.34 449.5,426.5C 447.368,426.554 446.035,427.554 445.5,429.5C 444.022,429.238 442.689,429.571 441.5,430.5C 439.059,431.709 437.059,433.376 435.5,435.5C 431.772,438.559 427.772,441.226 423.5,443.5C 420.833,443.5 418.167,443.5 415.5,443.5C 413.833,441.167 411.833,439.167 409.5,437.5C 407.167,434.833 404.833,432.167 402.5,429.5C 401.833,426.833 400.167,425.167 397.5,424.5C 391.463,418.465 385.796,412.131 380.5,405.5C 374.458,397.124 367.124,390.124 358.5,384.5C 355.129,382.154 351.796,379.821 348.5,377.5C 339.503,369.994 329.503,363.994 318.5,359.5C 317.054,358.387 315.387,358.22 313.5,359C 312.663,360.011 312.33,361.178 312.5,362.5C 312.667,400.835 312.5,439.168 312,477.5C 311.167,478.333 310.333,479.167 309.5,480C 303.536,481.161 297.536,481.994 291.5,482.5C 286.35,481.349 281.016,481.183 275.5,482C 274.584,482.278 273.918,482.778 273.5,483.5C 260.833,483.5 248.167,483.5 235.5,483.5C 230.298,481.654 224.798,480.654 219,480.5C 216.967,480.506 215.134,480.839 213.5,481.5C 209.812,481.219 206.145,480.719 202.5,480C 201.244,479.583 200.577,478.75 200.5,477.5C 199.845,438.706 199.178,400.039 198.5,361.5C 198.5,361.167 198.5,360.833 198.5,360.5C 197.986,358.561 196.653,357.561 194.5,357.5C 190.611,358.444 186.944,359.944 183.5,362C 182.748,362.671 182.414,363.504 182.5,364.5C 181.395,365.6 180.062,366.267 178.5,366.5C 175.966,366.259 174.3,367.259 173.5,369.5C 169.5,372.5 165.5,375.5 161.5,378.5C 158.808,380.862 156.141,383.196 153.5,385.5C 152.833,385.5 152.5,385.833 152.5,386.5C 151.395,387.6 150.062,388.267 148.5,388.5C 138.921,396.575 129.754,405.242 121,414.5C 120.536,415.094 120.369,415.761 120.5,416.5C 120.5,416.833 120.5,417.167 120.5,417.5C 113.833,422.167 108.167,427.833 103.5,434.5C 100.805,437.526 98.1379,440.526 95.5,443.5C 88.5929,443.375 82.5929,441.042 77.5,436.5C 74.6839,433.052 71.0173,430.718 66.5,429.5C 62.9163,425.545 58.583,422.878 53.5,421.5C 52.1007,420.11 50.4341,419.11 48.5,418.5C 48.1667,417.833 47.8333,417.167 47.5,416.5C 47.5858,415.504 47.2524,414.671 46.5,414C 41.6022,410.255 36.6022,406.755 31.5,403.5C 29.5,401.833 27.5,400.167 25.5,398.5C 21.8333,392.833 17.1667,388.167 11.5,384.5C 7.47183,380.141 3.47183,375.807 -0.5,371.5C -0.5,369.167 -0.5,366.833 -0.5,364.5C 6.55241,358.11 13.8857,352.11 21.5,346.5C 29.0626,342.561 36.0626,337.894 42.5,332.5C 44.0269,332.573 45.0269,331.906 45.5,330.5C 49.0171,328.576 52.6837,326.909 56.5,325.5C 62.4106,323.545 68.0773,321.045 73.5,318C 75.6917,316.933 77.3583,315.433 78.5,313.5C 82.5653,311.467 86.5653,309.467 90.5,307.5C 93.2406,307.293 95.5739,306.293 97.5,304.5C 102.964,302.105 108.63,300.272 114.5,299C 115.056,298.617 115.389,298.117 115.5,297.5C 118.5,296.833 121.5,296.167 124.5,295.5C 128.844,296.034 132.844,294.701 136.5,291.5C 139.402,289.593 142.402,288.927 145.5,289.5C 145.56,290.043 145.893,290.376 146.5,290.5C 149.559,289.538 152.225,288.204 154.5,286.5C 160.43,284.595 166.097,283.261 171.5,282.5C 173.099,282.768 174.432,282.434 175.5,281.5C 179.466,280.838 183.466,280.505 187.5,280.5C 187.735,281.097 188.235,281.43 189,281.5C 194.491,280.449 199.658,279.116 204.5,277.5C 215.097,275.903 225.764,275.237 236.5,275.5 Z"/></g>
<g><path style="opacity:0.976" fill="#ff8a33" d="M 236.5,275.5 C 249.5,274.167 262.5,274.167 275.5,275.5C 262.5,276.833 249.5,276.833 236.5,275.5 Z"/></g>
<g><path style="opacity:0.843" fill="#ff9340" d="M 307.5,277.5 C 313.194,277.24 318.527,278.24 323.5,280.5C 323.265,281.097 322.765,281.43 322,281.5C 318.197,280.695 314.364,280.028 310.5,279.5C 308.97,279.36 307.97,278.693 307.5,277.5 Z"/></g>
<g><path style="opacity:0.004" fill="#fe9e51" d="M 175.5,281.5 C 174.833,280.167 174.833,280.167 175.5,281.5 Z"/></g>
<g><path style="opacity:1" fill="#ff9644" d="M 204.5,277.5 C 199.658,279.116 194.491,280.449 189,281.5C 188.235,281.43 187.735,281.097 187.5,280.5C 192.844,278.367 198.511,277.367 204.5,277.5 Z"/></g>
<g><path style="opacity:0.004" fill="#fea860" d="M 336.5,280.5 C 337.833,281.167 337.833,281.167 336.5,280.5 Z"/></g>
<g><path style="opacity:0.004" fill="#fea052" d="M 171.5,282.5 C 170.833,281.167 170.833,281.167 171.5,282.5 Z"/></g>
<g><path style="opacity:0.741" fill="#ff9946" d="M 154.5,286.5 C 152.225,288.204 149.559,289.538 146.5,290.5C 145.893,290.376 145.56,290.043 145.5,289.5C 148.145,287.69 151.145,286.69 154.5,286.5 Z"/></g>
<g><path style="opacity:0.761" fill="#ff9645" d="M 357.5,286.5 C 361.537,287.065 365.203,288.399 368.5,290.5C 365.478,290.196 362.478,289.696 359.5,289C 358.244,288.583 357.577,287.75 357.5,286.5 Z"/></g>
<g><path style="opacity:0.212" fill="#ffa75d" d="M 372.5,290.5 C 375.746,291.054 378.746,292.054 381.5,293.5C 379.304,293.41 377.137,293.077 375,292.5C 373.624,292.316 372.791,291.649 372.5,290.5 Z"/></g>
<g><path style="opacity:0.6" fill="#ff9543" d="M 136.5,291.5 C 132.844,294.701 128.844,296.034 124.5,295.5C 128.195,293.568 132.195,292.235 136.5,291.5 Z"/></g>
<g><path style="opacity:0.004" fill="#feb06f" d="M 115.5,297.5 C 114.833,296.167 114.833,296.167 115.5,297.5 Z"/></g>
<g><path style="opacity:0.004" fill="#fe9e4d" d="M 395.5,296.5 C 396.833,297.167 396.833,297.167 395.5,296.5 Z"/></g>
<g><path style="opacity:0.004" fill="#fe9f4f" d="M 397.5,297.5 C 398.833,298.167 398.833,298.167 397.5,297.5 Z"/></g>
<g><path style="opacity:0.004" fill="#fe953f" d="M 97.5,304.5 C 96.8333,303.167 96.8333,303.167 97.5,304.5 Z"/></g>
<g><path style="opacity:0.004" fill="#fea050" d="M 414.5,303.5 C 415.833,304.167 415.833,304.167 414.5,303.5 Z"/></g>
<g><path style="opacity:0.965" fill="#ff8e38" d="M 402.5,300.5 C 406.393,302.02 410.393,303.353 414.5,304.5C 416.181,306.008 418.181,307.008 420.5,307.5C 421.167,308.167 421.833,308.833 422.5,309.5C 418.608,308.262 414.608,307.095 410.5,306C 407.244,304.884 404.578,303.051 402.5,300.5 Z"/></g>
<g><path style="opacity:0.004" fill="#feaf6f" d="M 90.5,307.5 C 89.8333,306.167 89.8333,306.167 90.5,307.5 Z"/></g>
<g><path style="opacity:0.004" fill="#fe933b" d="M 420.5,306.5 C 421.833,307.167 421.833,307.167 420.5,306.5 Z"/></g>
<g><path style="opacity:0.627" fill="#ffa254" d="M 425.5,309.5 C 428.696,310.929 431.696,312.595 434.5,314.5C 430.386,314.614 427.386,312.948 425.5,309.5 Z"/></g>
<g><path style="opacity:0.004" fill="#feae6d" d="M 436.5,313.5 C 437.833,314.167 437.833,314.167 436.5,313.5 Z"/></g>
<g><path style="opacity:0.02" fill="#ff943e" d="M 435.5,314.5 C 435.833,314.5 436.167,314.5 436.5,314.5C 440.182,317.008 444.182,319.008 448.5,320.5C 448.833,321.167 449.167,321.833 449.5,322.5C 445.608,321.554 441.941,320.054 438.5,318C 436.937,317.241 435.937,316.074 435.5,314.5 Z"/></g>
<g><path style="opacity:0.004" fill="#fea357" d="M 448.5,319.5 C 449.833,320.167 449.833,320.167 448.5,319.5 Z"/></g>
<g><path style="opacity:0.957" fill="#ff8d37" d="M 78.5,313.5 C 77.3583,315.433 75.6917,316.933 73.5,318C 68.0773,321.045 62.4106,323.545 56.5,325.5C 63.2627,320.569 70.596,316.569 78.5,313.5 Z"/></g>
<g><path style="opacity:0.004" fill="#fea45d" d="M 452.5,321.5 C 453.833,322.167 453.833,322.167 452.5,321.5 Z"/></g>
<g><path style="opacity:0.004" fill="#fea254" d="M 45.5,330.5 C 44.8333,329.167 44.8333,329.167 45.5,330.5 Z"/></g>
<g><path style="opacity:0.671" fill="#ffa050" d="M 454.5,325.5 C 459.288,327.059 463.621,329.393 467.5,332.5C 462.432,331.41 458.099,329.076 454.5,325.5 Z"/></g>
<g><path style="opacity:0.004" fill="#fe9b4c" d="M 42.5,332.5 C 41.8333,331.167 41.8333,331.167 42.5,332.5 Z"/></g>
<g><path style="opacity:0.004" fill="#feaa65" d="M 481.5,339.5 C 482.833,340.167 482.833,340.167 481.5,339.5 Z"/></g>
<g><path style="opacity:0.004" fill="#fe5000" d="M 21.5,346.5 C 20.8333,345.167 20.8333,345.167 21.5,346.5 Z"/></g>
<g><path style="opacity:0.004" fill="#fe9e4f" d="M 490.5,345.5 C 491.833,346.167 491.833,346.167 490.5,345.5 Z"/></g>
<g><path style="opacity:0.486" fill="#ffac63" d="M 318.5,359.5 C 315.715,358.916 314.048,359.916 313.5,362.5C 313.167,362.5 312.833,362.5 312.5,362.5C 312.33,361.178 312.663,360.011 313.5,359C 315.387,358.22 317.054,358.387 318.5,359.5 Z"/></g>
<g><path style="opacity:0.651" fill="#ff9d50" d="M 198.5,360.5 C 192.541,359.15 187.207,360.483 182.5,364.5C 182.414,363.504 182.748,362.671 183.5,362C 186.944,359.944 190.611,358.444 194.5,357.5C 196.653,357.561 197.986,358.561 198.5,360.5 Z"/></g>
<g><path style="opacity:0.694" fill="#ffa560" d="M 198.5,361.5 C 199.178,400.039 199.845,438.706 200.5,477.5C 199.883,477.389 199.383,477.056 199,476.5C 198.5,438.168 198.333,399.835 198.5,361.5 Z"/></g>
<g><path style="opacity:0.004" fill="#fea963" d="M 313.5,362.5 C 314.833,363.167 314.833,363.167 313.5,362.5 Z"/></g>
<g><path style="opacity:0.431" fill="#ffab62" d="M 178.5,366.5 C 177.101,367.89 175.434,368.89 173.5,369.5C 174.3,367.259 175.966,366.259 178.5,366.5 Z"/></g>
<g><path style="opacity:0.055" fill="#ff9542" d="M 506.5,359.5 C 508.167,360.833 509.833,362.167 511.5,363.5C 511.5,366.5 511.5,369.5 511.5,372.5C 510.778,373.551 509.778,374.218 508.5,374.5C 510.343,371.436 510.843,368.103 510,364.5C 508.198,363.211 507.031,361.544 506.5,359.5 Z"/></g>
<g><path style="opacity:0.004" fill="#fe8f00" d="M 348.5,377.5 C 347.833,378.167 347.833,378.167 348.5,377.5 Z"/></g>
<g><path style="opacity:0.004" fill="#fe5a00" d="M 161.5,378.5 C 162.833,379.167 162.833,379.167 161.5,378.5 Z"/></g>
<g><path style="opacity:0.004" fill="#fea75e" d="M 506.5,378.5 C 507.833,379.167 507.833,379.167 506.5,378.5 Z"/></g>
<g><path style="opacity:0.004" fill="#fe9a4a" d="M 505.5,379.5 C 505.833,379.5 506.167,379.5 506.5,379.5C 506.315,380.17 505.981,380.17 505.5,379.5 Z"/></g>
<g><path style="opacity:0.004" fill="#fe9035" d="M 153.5,385.5 C 154.833,386.167 154.833,386.167 153.5,385.5 Z"/></g>
<g><path style="opacity:0.004" fill="#fe8826" d="M 358.5,385.5 C 357.833,386.167 357.833,386.167 358.5,385.5 Z"/></g>
<g><path style="opacity:0.227" fill="#ff9c50" d="M 11.5,384.5 C 17.1667,388.167 21.8333,392.833 25.5,398.5C 24.5,397.833 23.5,397.167 22.5,396.5C 19.8333,393.167 16.8333,390.167 13.5,387.5C 12.8333,386.5 12.1667,385.5 11.5,384.5 Z"/></g>
<g><path style="opacity:0.004" fill="#fe9843" d="M 152.5,386.5 C 152.833,386.5 153.167,386.5 153.5,386.5C 153.315,387.17 152.981,387.17 152.5,386.5 Z"/></g>
<g><path style="opacity:0.004" fill="#fe9b49" d="M 13.5,387.5 C 12.8333,388.167 12.8333,388.167 13.5,387.5 Z"/></g>
<g><path style="opacity:0.949" fill="#ff8a32" d="M 358.5,385.5 C 358.5,385.167 358.5,384.833 358.5,384.5C 367.124,390.124 374.458,397.124 380.5,405.5C 373.466,398.464 366.133,391.797 358.5,385.5 Z"/></g>
<g><path style="opacity:0.078" fill="#ffb36f" d="M 498.5,385.5 C 496.906,388.764 494.573,391.431 491.5,393.5C 493.094,390.236 495.427,387.569 498.5,385.5 Z"/></g>
<g><path style="opacity:0.004" fill="#fe7c11" d="M 490.5,394.5 C 491.833,395.167 491.833,395.167 490.5,394.5 Z"/></g>
<g><path style="opacity:0.004" fill="#fe831e" d="M 489.5,395.5 C 489.833,395.5 490.167,395.5 490.5,395.5C 490.315,396.17 489.981,396.17 489.5,395.5 Z"/></g>
<g><path style="opacity:0.004" fill="#fea359" d="M 22.5,396.5 C 21.8333,397.167 21.8333,397.167 22.5,396.5 Z"/></g>
<g><path style="opacity:0.004" fill="#fe8420" d="M 488.5,396.5 C 488.833,396.5 489.167,396.5 489.5,396.5C 489.315,397.17 488.981,397.17 488.5,396.5 Z"/></g>
<g><path style="opacity:0.004" fill="#fea862" d="M 136.5,401.5 C 137.833,402.167 137.833,402.167 136.5,401.5 Z"/></g>
<g><path style="opacity:0.239" fill="#ff9949" d="M 148.5,388.5 C 144.5,392.833 140.5,397.167 136.5,401.5C 132.833,404.5 129.5,407.833 126.5,411.5C 124.5,413.167 122.5,414.833 120.5,416.5C 120.369,415.761 120.536,415.094 121,414.5C 129.754,405.242 138.921,396.575 148.5,388.5 Z"/></g>
<g><path style="opacity:0.784" fill="#ff923d" d="M 31.5,403.5 C 36.6022,406.755 41.6022,410.255 46.5,414C 47.2524,414.671 47.5858,415.504 47.5,416.5C 44.8333,414.833 42.1667,413.167 39.5,411.5C 36.5271,409.194 33.8605,406.527 31.5,403.5 Z"/></g>
<g><path style="opacity:0.153" fill="#ff943f" d="M 480.5,402.5 C 477.806,405.86 474.806,408.86 471.5,411.5C 470.609,412.11 469.609,412.443 468.5,412.5C 472.158,408.849 476.158,405.516 480.5,402.5 Z"/></g>
<g><path style="opacity:0.004" fill="#feac66" d="M 39.5,411.5 C 38.8333,412.167 38.8333,412.167 39.5,411.5 Z"/></g>
<g><path style="opacity:0.004" fill="#fe923a" d="M 126.5,411.5 C 127.833,412.167 127.833,412.167 126.5,411.5 Z"/></g>
<g><path style="opacity:0.004" fill="#fe8623" d="M 471.5,411.5 C 472.833,412.167 472.833,412.167 471.5,411.5 Z"/></g>
<g><path style="opacity:0.004" fill="#feac68" d="M 48.5,418.5 C 47.8333,419.167 47.8333,419.167 48.5,418.5 Z"/></g>
<g><path style="opacity:0.004" fill="#feb170" d="M 120.5,418.5 C 121.833,419.167 121.833,419.167 120.5,418.5 Z"/></g>
<g><path style="opacity:0.004" fill="#fe8929" d="M 462.5,418.5 C 463.833,419.167 463.833,419.167 462.5,418.5 Z"/></g>
<g><path style="opacity:0.094" fill="#ff9844" d="M 120.5,417.5 C 120.5,417.833 120.5,418.167 120.5,418.5C 117.167,421.167 114.167,424.167 111.5,427.5C 109.477,430.52 106.81,432.854 103.5,434.5C 108.167,427.833 113.833,422.167 120.5,417.5 Z"/></g>
<g><path style="opacity:0.098" fill="#ffab60" d="M 458.5,420.5 C 457.415,422.587 455.749,423.92 453.5,424.5C 454.129,422.003 455.796,420.67 458.5,420.5 Z"/></g>
<g><path style="opacity:0.698" fill="#ffaf69" d="M 397.5,424.5 C 400.167,425.167 401.833,426.833 402.5,429.5C 401.833,429.167 401.167,428.833 400.5,428.5C 399.5,427.167 398.5,425.833 397.5,424.5 Z"/></g>
<g><path style="opacity:0.004" fill="#fe9740" d="M 61.5,427.5 C 60.8333,428.167 60.8333,428.167 61.5,427.5 Z"/></g>
<g><path style="opacity:0.753" fill="#ff943f" d="M 53.5,421.5 C 58.583,422.878 62.9163,425.545 66.5,429.5C 64.7162,429.107 63.0495,428.441 61.5,427.5C 58.8333,425.5 56.1667,423.5 53.5,421.5 Z"/></g>
<g><path style="opacity:0.004" fill="#fe8420" d="M 111.5,427.5 C 112.833,428.167 112.833,428.167 111.5,427.5 Z"/></g>
<g><path style="opacity:0.616" fill="#ffa458" d="M 449.5,426.5 C 448.965,428.446 447.632,429.446 445.5,429.5C 446.035,427.554 447.368,426.554 449.5,426.5 Z"/></g>
<g><path style="opacity:0.004" fill="#fea860" d="M 400.5,428.5 C 399.833,429.167 399.833,429.167 400.5,428.5 Z"/></g>
<g><path style="opacity:0.275" fill="#ff9441" d="M 66.5,429.5 C 71.0173,430.718 74.6839,433.052 77.5,436.5C 73.3171,434.913 69.6505,432.579 66.5,429.5 Z"/></g>
<g><path style="opacity:0.137" fill="#ff9844" d="M 445.5,429.5 C 443.5,431.167 441.5,432.833 439.5,434.5C 438.167,434.833 436.833,435.167 435.5,435.5C 437.059,433.376 439.059,431.709 441.5,430.5C 442.689,429.571 444.022,429.238 445.5,429.5 Z"/></g>
<g><path style="opacity:0.004" fill="#feae6c" d="M 439.5,434.5 C 440.833,435.167 440.833,435.167 439.5,434.5 Z"/></g>
<g><path style="opacity:0.004" fill="#fe9036" d="M 409.5,437.5 C 408.833,438.167 408.833,438.167 409.5,437.5 Z"/></g>
<g><path style="opacity:0.004" fill="#fe8c2e" d="M 95.5,443.5 C 96.8333,444.167 96.8333,444.167 95.5,443.5 Z"/></g>
<g><path style="opacity:0.004" fill="#feb06f" d="M 415.5,443.5 C 414.833,444.167 414.833,444.167 415.5,443.5 Z"/></g>
<g><path style="opacity:0.004" fill="#fe9d4c" d="M 423.5,443.5 C 424.833,444.167 424.833,444.167 423.5,443.5 Z"/></g>
<g><path style="opacity:1" fill="#ff9440" d="M 291.5,482.5 C 285.591,483.455 279.591,483.789 273.5,483.5C 273.918,482.778 274.584,482.278 275.5,482C 281.016,481.183 286.35,481.349 291.5,482.5 Z"/></g>
<g><path style="opacity:0.271" fill="#ff933d" d="M 235.5,483.5 C 227.929,483.843 220.596,483.177 213.5,481.5C 215.134,480.839 216.967,480.506 219,480.5C 224.798,480.654 230.298,481.654 235.5,483.5 Z"/></g>
</svg>
